<svg width="398" height="363" viewBox="0 0 398 363" fill="none" xmlns="http://www.w3.org/2000/svg">
<rect x="159.402" y="165.466" width="100.243" height="118" fill="#9C9E9F"/>
<path d="M262.623 174.466C262.623 201.646 253.425 222.372 233.682 233.445C228.246 236.493 221.575 236.471 216.187 233.341C199.265 223.512 186.006 204.222 169.823 169.466C169.823 138.538 194.834 118.466 218.952 118.466C243.071 118.466 262.623 143.538 262.623 174.466Z" fill="#B1B1B1"/>
<path d="M144.018 178.966L162.876 156.966C162.089 202.867 181.237 217.466 201.087 236.466L218.456 249.966L222.923 254.466C245.119 242.219 252.582 230.49 259.645 203.466L268.29 208.466L339.046 236.466C367.01 252.031 382.626 277.813 396.612 340.5L302.82 361.966H86.4525H1.09668C2.57466 345.975 1.69956 335.082 11.0218 327.966C1.09668 315.466 27.0134 233.773 44.7671 220.466L54.1959 210.966L66.6023 208.466L86.4525 197.966L98.8588 195.466C102.617 190.841 104.635 188.145 111.761 187.466L112.269 187.426C124.325 186.46 131.24 185.905 144.018 178.966Z" fill="#4317C2"/>
<path d="M144.018 178.966L162.876 156.966C162.089 202.867 181.237 217.466 201.087 236.466M144.018 178.966C131.062 186.002 124.133 186.474 111.761 187.466C104.635 188.145 102.617 190.841 98.8589 195.466L86.4525 197.966L66.6023 208.466L54.1959 210.966L44.7671 220.466M144.018 178.966C144.018 183.036 144.199 186.861 144.535 190.466M201.087 236.466C197.416 250.197 183.222 248.966 172.305 254.466C163.8 238.232 147.626 223.624 144.535 190.466M201.087 236.466L218.456 249.966L222.923 254.466C245.119 242.219 252.582 230.49 259.645 203.466L268.29 208.466M86.4525 361.966H302.82L396.612 340.5C382.626 277.813 367.01 252.031 339.046 236.466L268.29 208.466M86.4525 361.966H1.09668C2.57466 345.975 1.69956 335.082 11.0218 327.966C1.09668 315.466 27.0134 233.773 44.7671 220.466M86.4525 361.966C112.085 313.173 108.523 288.977 101.34 245.966C98.1506 243.329 95.9719 241.461 90.4225 236.466C86.0248 227.939 84.0071 226.289 80.4974 223.966C66.1836 214.241 58.467 215.949 44.7671 220.466M78.0162 215.466C85.4471 212.726 89.9835 211.406 101.34 210.966C107.633 212.942 111.236 213.748 118.709 210.966C123.175 203.466 124.093 198.091 127.642 195.466C134.239 193.514 137.938 192.419 144.535 190.466M136.574 197.966C134.903 204.465 134.546 208.607 142.033 222.966C148.484 239.466 142.719 258.804 150.966 266.966M150.966 272.466C149.367 283.433 149.532 288.392 150.966 295.966M211.509 333.466C201.684 319.154 211.509 300.966 209.027 266.966C215.863 262.622 219.738 260.725 226.893 260.466C235.827 263.054 240.836 264.235 249.72 254.466C257.297 263.551 263.546 265.604 278.503 263.466C266.436 243.017 257.364 231.846 268.29 208.466" stroke="black" stroke-width="2"/>
<g filter="url(#filter0_i_671_34)">
<path fill-rule="evenodd" clip-rule="evenodd" d="M144.018 178.966L162.876 156.966C162.143 199.681 178.675 215.289 196.97 232.562C198.335 233.85 199.709 235.148 201.087 236.466C198.513 246.094 190.766 248.366 182.602 250.76C179.122 251.78 175.567 252.823 172.305 254.466C170.124 250.303 167.439 246.247 164.599 241.958C156.365 229.52 146.834 215.121 144.535 190.466C144.199 186.861 144.018 183.036 144.018 178.966Z" fill="#2B0040" fill-opacity="0.14"/>
<path d="M259.645 203.466C252.582 230.49 245.119 242.219 222.923 254.466L226.893 260.466C235.827 263.054 240.836 264.235 249.72 254.466C257.297 263.551 263.546 265.604 278.503 263.466C266.436 243.017 257.364 231.846 268.29 208.466L259.645 203.466Z" fill="#2B0040" fill-opacity="0.14"/>
</g>
<path d="M144.018 178.966L162.876 156.966C162.143 199.681 178.675 215.289 196.97 232.562C198.335 233.85 199.709 235.148 201.087 236.466M144.018 178.966C144.018 183.036 144.199 186.861 144.535 190.466M144.018 178.966C131.24 185.905 124.325 186.46 112.268 187.426M201.087 236.466L218.456 249.966L222.923 254.466M201.087 236.466C198.513 246.094 190.766 248.366 182.602 250.76C179.122 251.78 175.567 252.823 172.305 254.466C170.124 250.303 167.439 246.247 164.599 241.958C156.365 229.52 146.834 215.121 144.535 190.466M222.923 254.466C245.119 242.219 252.582 230.49 259.645 203.466L268.29 208.466M222.923 254.466L226.893 260.466M302.82 361.966H86.4525M86.4525 361.966H1.09668C2.57466 345.975 1.69956 335.082 11.0218 327.966C1.09668 315.466 27.0133 233.773 44.7671 220.466M86.4525 361.966C112.085 313.173 108.523 288.977 101.34 245.966C98.1506 243.329 95.9719 241.461 90.4225 236.466C86.0248 227.939 84.0071 226.289 80.4974 223.966C66.1836 214.241 58.467 215.949 44.7671 220.466M44.7671 220.466L54.1959 210.966L66.6023 208.466L86.4525 197.966L98.8588 195.466C98.9535 195.35 99.0471 195.235 99.1397 195.12C102.722 190.707 104.815 188.128 111.761 187.466M111.761 187.466L112.268 187.426M111.761 187.466C111.932 187.453 112.1 187.439 112.268 187.426M78.0162 215.466C85.4471 212.726 89.9835 211.406 101.34 210.966C107.633 212.942 111.236 213.748 118.709 210.966C123.175 203.466 124.093 198.091 127.642 195.466C134.239 193.514 137.938 192.419 144.535 190.466M136.574 197.966C134.903 204.465 134.546 208.607 142.033 222.966C148.484 239.466 142.719 258.804 150.966 266.966M150.966 272.466C149.367 283.433 149.532 288.392 150.966 295.966M211.509 333.466C201.684 319.154 211.509 300.966 209.027 266.966C215.863 262.622 219.738 260.725 226.893 260.466M226.893 260.466C235.827 263.054 240.836 264.235 249.72 254.466C257.297 263.551 263.546 265.604 278.503 263.466C266.436 243.017 257.364 231.846 268.29 208.466M268.29 208.466L308.631 225.212M308.631 225.212L348.971 241.958C371.269 263.45 384.352 277.713 396.127 340.5M308.631 225.212C335.171 240.989 348.263 268.154 357.933 349.33" stroke="black" stroke-width="2"/>
<g filter="url(#filter1_i_671_34)">
<path d="M44.7666 220.466C58.4665 215.949 66.1831 214.241 80.4969 223.966C84.0066 226.289 86.0243 227.939 90.422 236.466C95.9715 241.461 98.1501 243.329 101.34 245.966M78.0157 215.466C85.4466 212.726 89.983 211.406 101.34 210.966C107.633 212.942 111.236 213.748 118.709 210.966C123.175 203.466 124.093 198.091 127.641 195.466C134.239 193.514 137.938 192.419 144.535 190.466M136.574 197.966C134.903 204.465 134.545 208.607 142.033 222.966C148.484 239.466 142.719 258.804 150.965 266.966M150.965 272.466C149.366 283.433 149.532 288.392 150.965 295.966M211.508 333.466C201.684 319.154 211.508 300.966 209.027 266.966C215.863 262.622 219.737 260.725 226.892 260.466" stroke="white" stroke-width="2"/>
</g>
<path d="M155.432 140.466C153.447 133.466 155.432 123.966 150.966 105.466C149.804 97.2734 153.175 91.2114 159.899 93.4562C164.968 79.2253 162.55 66.3026 163.504 48.0277C163.852 41.3566 165.672 34.7433 169.604 29.3427C197.369 -8.7953 262.228 -2.02497 296.369 46.9664C306.113 80.8346 302.015 92.8392 296.369 115.466C297.988 115.466 299.279 116.839 299.169 118.454C297.464 143.5 292.255 131.3 288.429 153.466L287.436 157.466C285.947 173.466 279.496 189.214 256.172 203.966C239.206 214.697 231.912 213.435 218.953 210.966C195.214 199.216 182.896 191.973 166.35 175.466C163.578 167.843 164.064 157.792 164.365 141.466C161.387 146.466 156.921 145.466 155.432 140.466Z" fill="#9C9E9F"/>
<path d="M296.368 46.9664C306.113 80.8346 302.014 92.8392 296.368 115.466C297.988 115.466 299.279 116.842 299.168 118.458C297.92 136.788 294.795 135.164 291.708 141.672C289.821 145.65 288.31 149.836 285.856 153.492L279.496 162.966C274.533 170.466 263.616 200.475 242.267 210.966C233.915 213.758 227.735 212.639 218.953 210.966C201.321 203.966 196.621 186.966 188.185 166.466C182.23 149.466 167.839 147.966 166.35 97.4664C163.951 95.3791 161.792 94.0883 159.898 93.4562C164.655 77.6328 162.232 65.3703 163.402 47.5787C163.821 41.1985 165.62 34.8979 169.345 29.7008C196.964 -8.83711 262.122 -2.17774 296.368 46.9664Z" fill="white"/>
<path fill-rule="evenodd" clip-rule="evenodd" d="M299.167 118.481C299.326 116.144 296.921 113.263 297.494 110.992C302.507 91.1073 305.451 78.5338 296.368 46.9664C261.7 -2.78238 195.356 -8.99454 168.343 31.1438C165.421 35.4847 163.812 40.571 162.917 45.7379C160.908 64.3088 166.872 78.8607 159.898 93.4562C161.792 94.0883 163.951 95.3791 166.35 97.4664C167.839 147.966 182.23 149.466 188.185 166.466C196.621 186.966 201.321 203.966 218.953 210.966C227.735 212.639 233.915 213.758 242.267 210.966C263.616 200.475 274.533 170.466 279.496 162.966L285.846 153.507C288.306 149.841 289.821 145.637 291.72 141.647C294.801 135.171 297.919 136.764 299.167 118.481ZM257.661 167.466C236.387 187.926 211.679 170.505 203.569 159.466C214.176 156.001 220.359 155.189 229.804 154.642C233.448 154.431 237.094 155.123 240.412 156.655C240.767 156.819 241.117 156.98 241.462 157.138C241.464 157.14 241.467 157.141 241.47 157.142C247.604 159.965 252.187 162.074 257.661 167.466Z" fill="#CFCFCF"/>
<path fill-rule="evenodd" clip-rule="evenodd" d="M299.167 118.481C299.278 116.853 297.987 115.466 296.368 115.466C287.473 127.6 276.051 123.882 260.483 118.815C255.457 117.179 250.608 121.428 251.391 126.691L251.61 128.161C252.332 133.006 253.643 137.789 256.234 141.947C257.957 144.711 259.752 147.18 261.408 149.458C266.729 156.777 270.62 162.13 266.097 168.966C261.657 172.078 261.422 174.963 261.098 178.946C260.589 185.201 259.859 194.164 242.266 210.966C259.093 202.697 269.44 182.304 275.498 170.363C277.126 167.154 278.445 164.555 279.496 162.966L285.846 153.507C287.598 150.896 288.871 148.012 290.145 145.126C290.659 143.96 291.174 142.795 291.72 141.647C292.537 139.93 293.357 138.78 294.143 137.676C296.323 134.618 298.25 131.915 299.167 118.481ZM208.035 204.077C200.276 196.79 196.045 186.147 191.131 173.789C190.184 171.408 189.212 168.963 188.185 166.466C186.45 161.513 183.999 157.876 181.359 153.959C174.939 144.433 167.405 133.253 166.35 97.4664C187.964 110.502 201.807 116.061 224.23 114.876C229.108 114.618 233.182 119.175 231.26 123.699C230.336 125.873 229.282 127.783 227.936 129.791C226.991 131.2 225.42 132.013 223.766 132.392C216.688 134.012 212.077 139.071 207.695 143.877C203.838 148.109 200.159 152.145 195.132 153.466C198.66 159.947 199.63 166.511 199.599 172.966C197.117 178.466 198.506 191.211 208.035 204.077Z" fill="#DEDEDE"/>
<path d="M234.337 120.966C233.087 123.907 230.012 129.596 227.885 132.466C225.736 132.466 223.586 133.346 222.067 134.787C219.524 137.2 219.715 142.606 223.192 143.053C224.412 143.21 226.191 143.154 228.878 142.966C231.239 143.007 230.367 145.466 236.322 147.466C238.992 147.744 241.27 147.356 243.307 146.072C244.255 145.473 245.416 145.22 246.467 145.61C248.113 146.222 249.509 146.688 250.942 146.878C252.092 147.031 253.34 146.78 254.06 145.871C256.178 143.199 254.478 138.042 250.217 135.466L249.766 132.63C248.745 126.198 248.232 119.695 248.232 113.182V107.966C244.581 108.509 242.636 107.734 239.299 106.466L234.337 120.966Z" fill="#CFCFCF"/>
<g opacity="0.5">
<path d="M257.661 167.466C236.387 187.926 211.679 170.505 203.569 159.466C210.19 167.259 245.255 175.346 257.661 167.466Z" fill="#B6B7D6"/>
<path d="M235.329 160.966C242.702 162.664 247.894 163.62 257.661 167.466C251.877 161.769 247.088 159.737 240.412 156.655C237.095 155.123 233.448 154.431 229.805 154.642C220.359 155.189 214.176 156.001 203.569 159.466C205.05 159.429 208.181 160.366 209.524 160.328C219.469 160.045 223.958 159.377 235.329 160.966Z" fill="#B6B7D6"/>
</g>
<path d="M257.661 167.466C247.894 163.62 242.702 162.664 235.33 160.966C223.958 159.377 219.469 160.045 209.524 160.328C208.181 160.366 204.562 159.966 203.569 159.466C210.19 167.259 245.255 175.346 257.661 167.466Z" stroke="black" stroke-width="2" stroke-miterlimit="1.02149"/>
<path d="M203.271 159.166C204.065 159.966 208.181 160.366 209.524 160.328C219.469 160.045 223.958 159.377 235.33 160.966C242.277 162.466 249.225 163.966 258.505 167.466" stroke="#9C9E9F" stroke-width="2" stroke-miterlimit="1.02149"/>
<path d="M235.08 97.2875C227.308 86.3075 216.991 89.3766 197.117 88.4664C203.479 91.6715 220.245 91.0077 233.696 98.6396C234.617 99.1622 235.692 98.1519 235.08 97.2875Z" fill="black"/>
<path d="M288.428 103.466C270.449 95.1432 259.131 94.0113 252.145 100.54C251.914 100.756 251.956 101.121 252.241 101.257C252.626 101.44 253.199 101.668 253.904 101.817C255.052 102.06 256.221 101.749 257.355 101.447L257.378 101.441C266.895 98.9105 277.662 102.523 288.428 103.466Z" fill="black"/>
<path d="M235.08 97.2875C227.308 86.3075 216.991 89.3766 197.117 88.4664C203.479 91.6715 220.245 91.0077 233.696 98.6396C234.617 99.1622 235.692 98.1519 235.08 97.2875Z" stroke="black" stroke-width="2"/>
<path d="M288.428 103.466C270.449 95.1432 259.131 94.0113 252.145 100.54C251.914 100.756 251.956 101.121 252.241 101.257C252.626 101.44 253.199 101.668 253.904 101.817C255.052 102.06 256.221 101.749 257.355 101.447L257.378 101.441C266.895 98.9105 277.662 102.523 288.428 103.466Z" stroke="black" stroke-width="2"/>
<g filter="url(#filter2_i_671_34)">
<path d="M184.215 73.9664C181.734 81.9664 170.32 82.4664 167.342 93.4664L165.357 99.4664L160.395 93.4664C157.403 68.0386 159.473 53.6072 165.907 30.9281C166.822 27.6993 168.769 24.8588 171.419 22.8001L191.163 7.46642C214.841 -0.440362 228.721 -3.8006 266.593 13.4664C282.087 20.9184 288.027 31.0865 297.857 44.9664C310.264 64.4664 308.282 89.2889 297.857 109.966C294.384 90.4664 286.949 80.1214 285.947 55.9664C275.926 46.9978 270.455 47.6061 260.638 46.4664C268.751 43.248 273.93 43.9729 283.466 46.4664C273.541 42.4664 271.081 38.2934 262.623 37.9664C249.536 44.032 246.265 43.8915 241.781 42.4664C234.109 37.9939 228.514 39.5927 218.627 42.4176L218.457 42.4664C214.034 47.9498 211.261 48.8477 206.05 48.4664C201.599 45.1686 199.811 46.1738 197.118 49.9664C190.17 52.9664 190.17 63.4664 184.215 73.9664Z" fill="#4317C2"/>
</g>
<path d="M193.148 87.4664C214.983 88.4664 229.748 84.163 237.811 99.4664M251.706 100.966C258.653 93.9664 270.067 94.9664 288.429 103.466M167.342 93.4664C170.32 82.4664 181.734 81.9664 184.215 73.9664C190.17 63.4664 190.17 52.9664 197.118 49.9664C199.811 46.1738 201.599 45.1686 206.05 48.4664C211.261 48.8477 214.034 47.9498 218.457 42.4664C228.45 39.6113 234.065 37.9682 241.781 42.4664C246.265 43.8915 249.536 44.032 262.623 37.9664C271.081 38.2934 273.541 42.4664 283.466 46.4664C273.93 43.9729 268.751 43.248 260.638 46.4664C270.455 47.6061 275.926 46.9978 285.947 55.9664C286.949 80.1214 294.384 90.4664 297.857 109.966C308.282 89.2889 310.264 64.4664 297.857 44.9664C288.027 31.0865 282.087 20.9184 266.593 13.4664C228.721 -3.8006 214.841 -0.440362 191.163 7.46642L171.419 22.8001C168.769 24.8588 166.822 27.6993 165.907 30.9281C159.473 53.6072 157.403 68.0386 160.395 93.4664L165.357 99.4664L167.342 93.4664Z" stroke="black" stroke-width="2"/>
<path d="M255.179 113.966C260.914 111.654 265.121 111.104 272.548 114.611C274.588 115.574 276.871 116.843 279.495 118.466M197.117 106.466C201.264 106.466 205.052 106.105 208.531 105.847C215.876 105.301 221.841 105.216 226.892 109.966" stroke="black" stroke-width="2"/>
<path d="M230.863 135.466C230.847 131.539 230.643 129.277 229.374 124.966M225.901 132.466C222.36 133.287 220.705 134.514 219.972 136.86C219.186 139.374 220.504 142.328 223.082 142.872C224.463 143.163 226.034 143.108 227.974 142.808C229.134 142.63 230.289 143.096 231.064 143.978C232.779 145.928 234.501 146.828 237.811 147.466C239.365 147.75 240.66 147.538 243.467 146C244.557 145.402 245.86 145.539 246.943 146.15C247.58 146.508 248.264 146.766 249.152 146.908C251.386 147.266 253.646 146.032 254.68 144.02C256.16 141.14 255.233 139.23 250.217 136.966M245.254 115.466C246.63 121.006 247.234 124.052 246.743 134.466" stroke="black" stroke-width="2"/>
<path d="M217.463 135.466C207.042 141.966 202.686 150.931 194.636 154.966C198.11 162.466 202.576 164.966 198.11 177.966M257.164 140.966C261.317 149.609 263.878 155.05 267.194 158.966M290.909 136.966C288.631 147.105 286.815 153.523 282.897 158.263C279.899 161.889 274.665 163.998 270.549 161.718C269.917 161.367 269.284 160.949 268.578 160.466C268.099 159.991 267.64 159.493 267.194 158.966M267.194 158.966C268.036 161.714 268.452 163.319 267.194 168.466C263.184 171.841 261.945 174.3 261.134 179.466" stroke="#9C9E9F" stroke-width="2"/>
<path d="M165.357 111.466C155.431 112.466 153.526 122.194 161.883 129.466C163.956 128.093 164.764 124.53 165.357 111.466Z" fill="#C4C4C4"/>
<path d="M152.95 103.466C155.893 91.6948 159.105 97.3291 165.357 111.466M165.357 111.466C155.431 112.466 153.526 122.194 161.883 129.466C163.956 128.093 164.764 124.53 165.357 111.466Z" stroke="black" stroke-width="2"/>
<path d="M198.109 180.966C201.155 192.418 202.588 199.103 212.501 203.966M242.772 210.701C259.149 206.701 268.081 178.966 276.021 168.966M170.319 126.966C171.808 144.466 187.688 157.466 190.169 171.466M160.394 92.4664C153.905 91.4079 151.118 93.1434 150.271 99.1381C149.821 102.321 150.37 105.545 151.129 108.669C153.004 116.376 154.326 122.799 154.787 134.365C154.933 138.044 154.95 143.02 158.452 144.155C159.899 144.624 161.68 143.818 164.364 141.466C164.214 152.388 164.051 159.943 164.72 167.257C165.209 172.606 168.018 177.428 172.17 180.835C193.5 198.341 217.375 211.966 226.396 211.966C240.067 211.971 247.667 213.217 270.607 192.423C275.594 187.903 279.911 182.571 282.29 176.275C284.839 169.526 286.386 162.25 288.428 151.966L290.699 141.466M290.699 141.466C299.64 130.679 301.192 124.45 296.864 112.966L290.699 141.466Z" stroke="black" stroke-width="2"/>
<path d="M191.691 102.855C192.289 96.6243 197.488 92.1969 203.7 92.0848C205.881 92.0454 208.176 92.1506 210.517 92.3973C202.729 91.5208 198.191 91.1234 188.185 91.4664V93.9664C191.488 95.8104 191.572 97.9664 191.572 104.466C191.6 103.921 191.64 103.384 191.691 102.855Z" fill="#5316FF"/>
<path d="M277.719 104.832C280.016 105.34 282.405 106.014 284.957 106.88C289.849 108.542 293.047 113.361 292.383 118.52C292.229 119.72 292.041 120.869 291.82 121.966C293.488 117.009 294.541 115.099 296.865 114.966V109.966C285.459 106.32 281.618 105.504 277.719 104.832Z" fill="#5316FF"/>
<path d="M248.273 108.466C248.728 105.966 249.721 105.478 251.706 104.966C247.672 106.005 242.895 105.291 238.307 103.466C240.129 105.861 239.801 107.892 237.811 112.466C240.292 106.466 247.239 107.466 248.273 112.966C248.273 112.966 248.272 109.499 248.273 108.466Z" fill="#5316FF"/>
<path d="M188.185 93.9664V91.4664C177.268 91.4664 172.992 90.8554 162.38 93.4664C164.597 95.2575 165.344 96.2425 165.854 97.9664C171.733 95.8991 173.369 94.6356 188.185 93.9664Z" fill="#5316FF"/>
<path d="M251.706 104.966C249.721 105.478 248.728 105.966 248.273 108.466C248.272 109.499 248.273 112.966 248.273 112.966M251.706 104.966C247.672 106.005 242.895 105.291 238.307 103.466M251.706 104.966C260.658 103.704 265.504 103.046 272.759 103.966M238.307 103.466C240.129 105.861 239.801 107.892 237.811 112.466M238.307 103.466C231.821 97.2427 220.726 93.4734 210.517 92.3973M248.273 112.966C248.909 134.401 256.958 140.162 276.301 139.249C279.079 139.118 281.921 138.583 284.088 136.828C287.686 133.915 290.41 128.993 291.82 121.966M248.273 112.966C247.239 107.466 240.292 106.466 237.811 112.466M237.811 112.466C226.422 134.368 214.983 130.466 207.043 129.466C194.286 126.033 191.572 118.966 191.572 104.466M210.517 92.3973C208.176 92.1506 205.881 92.0454 203.7 92.0848C197.488 92.1969 192.289 96.6243 191.691 102.855C191.64 103.384 191.6 103.921 191.572 104.466M210.517 92.3973C202.729 91.5208 198.191 91.1234 188.185 91.4664M188.185 91.4664V93.9664M188.185 91.4664C177.268 91.4664 172.992 90.8554 162.38 93.4664C164.597 95.2575 165.344 96.2425 165.854 97.9664C171.733 95.8991 173.369 94.6356 188.185 93.9664M188.185 93.9664C191.488 95.8104 191.572 97.9664 191.572 104.466M272.759 103.966C274.71 104.336 276.219 104.573 277.719 104.832M272.759 103.966C274.382 104.172 276.025 104.457 277.719 104.832M291.82 121.966C292.041 120.869 292.229 119.72 292.383 118.52C293.047 113.361 289.849 108.542 284.957 106.88C282.405 106.014 280.016 105.34 277.719 104.832M291.82 121.966C293.488 117.009 294.541 115.099 296.865 114.966V109.966C285.459 106.32 281.618 105.504 277.719 104.832" stroke="#5316FF" stroke-width="2"/>
<path d="M207.043 129.466C194.286 126.033 191.572 118.966 191.572 104.466C191.6 103.921 191.64 103.384 191.691 102.855M291.82 121.966C292.041 120.869 292.229 119.72 292.383 118.52C293.047 113.361 289.849 108.542 284.957 106.88C282.405 106.014 280.016 105.34 277.719 104.832M277.719 104.832C276.219 104.573 274.71 104.336 272.759 103.966C274.382 104.172 276.025 104.457 277.719 104.832Z" stroke="white" stroke-width="2"/>
<path d="M198.109 180.966C201.155 192.418 202.588 199.103 212.501 203.966M242.772 210.701C259.149 206.701 268.081 178.966 276.021 168.966M170.319 126.966C171.808 144.466 187.688 157.466 190.169 171.466M290.699 141.466L288.428 151.966C286.386 162.25 284.839 169.526 282.29 176.275C279.911 182.571 275.594 187.903 270.607 192.423C247.667 213.217 240.067 211.971 226.396 211.966C217.375 211.966 193.5 198.341 172.17 180.835C168.018 177.428 165.209 172.606 164.72 167.257C164.051 159.943 164.214 152.388 164.364 141.466C161.68 143.818 159.899 144.624 158.452 144.155C154.95 143.02 154.933 138.044 154.787 134.365C154.326 122.799 153.004 116.376 151.129 108.669C150.37 105.545 149.821 102.321 150.271 99.1381C151.118 93.1434 153.905 91.4079 160.394 92.4664C162.875 93.4664 164.682 95.6173 166.349 98.9664M290.699 141.466C299.64 130.679 301.192 124.45 296.864 112.966L290.699 141.466Z" stroke="black" stroke-width="2"/>
<path d="M198.11 180.966C201.155 192.418 202.588 199.103 212.501 203.966M242.773 210.701C259.149 206.701 268.082 178.966 276.022 168.966M170.319 126.966C171.808 144.466 187.688 157.466 190.17 171.466" stroke="black" stroke-width="2"/>
<ellipse cx="189.078" cy="176.366" rx="1.09176" ry="1.1" fill="black"/>
<path d="M196.567 42.218C187.295 52.4148 175.36 46.6672 176.191 76.1006C168.302 45.172 189.823 33.0905 202.982 36.1838M170.398 67.1399C165.247 53.0629 174.483 41.7201 189.144 30.8519C162.215 40.7288 163.864 57.4275 166.263 70.7712" stroke="white" stroke-width="2"/>
<defs>
<filter id="filter0_i_671_34" x="0" y="143.208" width="397.109" height="219.759" filterUnits="userSpaceOnUse" color-interpolation-filters="sRGB">
<feFlood flood-opacity="0" result="BackgroundImageFix"/>
<feBlend mode="normal" in="SourceGraphic" in2="BackgroundImageFix" result="shape"/>
<feColorMatrix in="SourceAlpha" type="matrix" values="0 0 0 0 0 0 0 0 0 0 0 0 0 0 0 0 0 0 127 0" result="hardAlpha"/>
<feOffset dy="-11"/>
<feGaussianBlur stdDeviation="17.5"/>
<feComposite in2="hardAlpha" operator="arithmetic" k2="-1" k3="1"/>
<feColorMatrix type="matrix" values="0 0 0 0 0 0 0 0 0 0 0 0 0 0 0 0 0 0 0.11 0"/>
<feBlend mode="normal" in2="shape" result="effect1_innerShadow_671_34"/>
</filter>
<filter id="filter1_i_671_34" x="44.4531" y="178.508" width="182.475" height="155.525" filterUnits="userSpaceOnUse" color-interpolation-filters="sRGB">
<feFlood flood-opacity="0" result="BackgroundImageFix"/>
<feBlend mode="normal" in="SourceGraphic" in2="BackgroundImageFix" result="shape"/>
<feColorMatrix in="SourceAlpha" type="matrix" values="0 0 0 0 0 0 0 0 0 0 0 0 0 0 0 0 0 0 127 0" result="hardAlpha"/>
<feOffset dy="-11"/>
<feGaussianBlur stdDeviation="17.5"/>
<feComposite in2="hardAlpha" operator="arithmetic" k2="-1" k3="1"/>
<feColorMatrix type="matrix" values="0 0 0 0 0 0 0 0 0 0 0 0 0 0 0 0 0 0 0.11 0"/>
<feBlend mode="normal" in2="shape" result="effect1_innerShadow_671_34"/>
</filter>
<filter id="filter2_i_671_34" x="158.05" y="0" width="156.386" height="117.097" filterUnits="userSpaceOnUse" color-interpolation-filters="sRGB">
<feFlood flood-opacity="0" result="BackgroundImageFix"/>
<feBlend mode="normal" in="SourceGraphic" in2="BackgroundImageFix" result="shape"/>
<feColorMatrix in="SourceAlpha" type="matrix" values="0 0 0 0 0 0 0 0 0 0 0 0 0 0 0 0 0 0 127 0" result="hardAlpha"/>
<feOffset dx="7" dy="4"/>
<feGaussianBlur stdDeviation="5.5"/>
<feComposite in2="hardAlpha" operator="arithmetic" k2="-1" k3="1"/>
<feColorMatrix type="matrix" values="0 0 0 0 0 0 0 0 0 0 0 0 0 0 0 0 0 0 0.25 0"/>
<feBlend mode="normal" in2="shape" result="effect1_innerShadow_671_34"/>
</filter>
</defs>
</svg>
