<svg width="215" height="196" viewBox="0 0 215 196" fill="none" xmlns="http://www.w3.org/2000/svg">
<path d="M28.8998 158.402C28.8998 158.402 28.7242 82.2758 28.8998 74.299C29.0755 66.1488 42.4249 66.1488 42.4249 74.299V145.397H120.689C122.444 145.397 123.348 147.495 122.142 148.771L113.628 157.776C113.25 158.176 112.725 158.402 112.175 158.402H28.8998Z" fill="#244567" stroke="#244567" stroke-width="2"/>
<path d="M28.8998 158.402C28.8998 158.402 28.7242 82.2758 28.8998 74.299C29.0755 66.1488 42.4249 66.1488 42.4249 74.299V94.5333M113.036 158.402L122.142 148.771C123.348 147.495 122.444 145.397 120.689 145.397H81.8099" stroke="#244567" stroke-width="2"/>
<path d="M113.037 158.402L122.142 148.77C123.348 147.495 122.444 145.396 120.689 145.396H81.8101" stroke="#244567" stroke-width="2"/>
<path d="M30.9306 21.543C31.0299 30.4266 30.9306 41.198 30.9306 41.198C16.9145 48.7138 5.9316 54.615 3.8112 55.7866C-2.88061 59.4843 1.26197 71.0596 10.0251 67.5227C17.8225 64.3756 87.2557 32.9471 102.465 26.0593C104.299 25.2287 106.377 25.2285 108.211 26.0582C123.435 32.9437 192.979 64.3754 200.776 67.5227C209.54 71.0596 213.682 59.4843 206.99 55.7866C202.119 53.0951 150.515 24.7252 122.792 9.50119C111.951 3.54837 99.0243 3.6908 88.2604 9.78068C77.0464 16.1252 61.8888 24.6084 47.5009 32.3168C47.5009 32.3168 47.6025 30.4668 47.5009 21.543C47.3993 12.6192 30.8313 12.6595 30.9306 21.543Z" fill="#244567" stroke="#244567"/>
<path d="M135.74 118.626L135.451 118.681C121.098 121.395 110.49 109.139 112.232 97.6899C112.315 97.1507 112.669 96.8409 113.092 96.7517C113.527 96.6601 114.05 96.802 114.423 97.2474L119.959 103.844C120.895 104.96 122.223 105.676 123.67 105.844C125.23 106.026 126.795 105.556 127.997 104.547L136.721 97.2275C137.924 96.2183 138.657 94.7584 138.75 93.1911C138.835 91.7367 138.361 90.3041 137.425 89.188L131.89 82.5913C131.516 82.1459 131.466 81.6069 131.632 81.1949C131.793 80.7942 132.161 80.4996 132.706 80.5132C144.26 80.8017 154.394 93.4535 149.227 107.122L149.123 107.396L187.325 152.925L187.567 152.917C192.862 152.769 197.77 154.714 201.037 158.23C204.296 161.736 205.958 166.844 204.704 173.109C204.594 173.66 204.206 173.99 203.75 174.086C203.288 174.184 202.752 174.038 202.375 173.589L198.072 168.46C197.536 167.822 196.82 167.359 196.018 167.133C194.697 166.762 193.279 167.067 192.228 167.948L187.888 171.59C186.838 172.471 186.291 173.816 186.428 175.18C186.511 176.009 186.842 176.795 187.378 177.433L191.681 182.562C192.058 183.012 192.109 183.564 191.933 184.003C191.759 184.435 191.367 184.759 190.804 184.772C184.417 184.92 179.675 182.395 176.787 178.578C173.891 174.75 172.827 169.579 173.893 164.391L173.942 164.154L135.74 118.626Z" fill="#244567" stroke="#244567"/>
<path d="M144.289 141.215L153.712 152.607C153.774 152.682 153.772 152.793 153.705 152.865L126.052 183.191C123.255 186.258 118.501 186.477 115.434 183.68C112.367 180.883 112.148 176.129 114.944 173.062L143.992 141.208C144.072 141.12 144.213 141.123 144.289 141.215ZM123.524 174.55C121.684 172.873 118.833 173.004 117.156 174.844C115.478 176.683 115.61 179.534 117.449 181.212C119.289 182.889 122.14 182.758 123.817 180.918C125.495 179.079 125.364 176.228 123.524 174.55ZM193.376 83.3489C194.059 83.5635 194.174 84.4932 193.506 84.872L179.337 92.8973C178.989 93.0947 178.763 93.4529 178.734 93.8522L178.25 100.547C178.231 100.808 178.299 101.07 178.443 101.289L185.006 111.311C185.228 111.651 185.607 111.854 186.012 111.853L191.337 111.829C191.579 111.828 191.815 111.754 192.014 111.616L204.035 103.282C204.441 103.001 204.884 103.342 204.805 103.744C202.786 114.06 195.305 124.23 183.754 126.562C183.48 126.618 183.211 126.722 182.968 126.877L177.981 130.055L160.082 109.822L163.562 93.0064C165.215 85.3707 176.25 77.967 193.376 83.3489Z" fill="#244567" stroke="#244567"/>
</svg>
