<svg width="653" height="153" viewBox="0 0 653 153" fill="none" xmlns="http://www.w3.org/2000/svg">
<path d="M20.2851 126.356C20.2851 126.356 20.1627 73.32 20.2851 67.7627C20.4075 62.0846 29.7078 62.0846 29.7078 67.7627V117.295H82.8244C84.5793 117.295 85.4833 119.394 84.2777 120.669L79.4933 125.73C79.1155 126.13 78.5899 126.356 78.04 126.356H20.2851Z" fill="#244567" stroke="#244567" stroke-width="2"/>
<path d="M20.2851 126.356C20.2851 126.356 20.1627 73.32 20.2851 67.7627C20.4075 62.0846 29.7078 62.0846 29.7078 67.7627V81.8596M78.9014 126.356L84.2777 120.669C85.4833 119.394 84.5793 117.295 82.8244 117.295H57.1466" stroke="#244567" stroke-width="2"/>
<path d="M78.9016 126.356L84.2779 120.669C85.4835 119.394 84.5795 117.295 82.8246 117.295H57.1467" stroke="#244567" stroke-width="2"/>
<path d="M21.7 31.0086C21.7692 37.1976 21.7 44.7019 21.7 44.7019C11.9352 49.938 4.28365 54.0492 2.80641 54.8655C-1.85565 57.4416 1.03041 65.5059 7.1355 63.0418C12.4322 60.904 58.5516 40.0348 70.6736 34.5459C72.5078 33.7154 74.5682 33.7149 76.4029 34.5446C88.5364 40.0313 134.731 60.9039 140.028 63.0418C146.134 65.5059 149.02 57.4416 144.358 54.8655C141.253 53.1501 110.901 36.463 90.9655 25.5124C80.1259 19.5582 67.1943 19.704 56.4123 25.762C49.4376 29.6809 41.1731 34.2666 33.2442 38.5145C33.2442 38.5145 33.315 37.2257 33.2442 31.0086C33.1735 24.7916 21.6308 24.8197 21.7 31.0086Z" fill="#244567" stroke="#244567"/>
<path d="M94.7774 98.4793L94.4898 98.5332C84.6801 100.388 77.4158 92.1009 78.4629 84.281C78.5104 83.9264 78.7324 83.7317 79.0005 83.6743C79.2817 83.6142 79.6321 83.7054 79.8869 84.0091L83.608 88.4437C84.2854 89.2509 85.2456 89.7691 86.2922 89.8909C87.4202 90.0221 88.5524 89.6823 89.4222 88.9524L95.4997 83.8528C96.3696 83.1229 96.9009 82.0669 96.9675 80.9333C97.0293 79.8814 96.6856 78.8459 96.0084 78.0386L92.2873 73.6039C92.0324 73.3003 92.0036 72.9391 92.1115 72.6729C92.2146 72.4194 92.4444 72.2354 92.8014 72.2508C100.665 72.5889 107.505 81.2328 103.973 90.5761L103.869 90.8506L130.588 122.693L130.83 122.686C134.457 122.585 137.815 123.909 140.058 126.295C142.293 128.672 143.457 132.14 142.647 136.413C142.58 136.769 142.337 136.976 142.047 137.038C141.75 137.101 141.4 137.007 141.151 136.71L138.26 133.265C137.868 132.797 137.342 132.458 136.754 132.293C135.786 132.021 134.746 132.244 133.975 132.891L130.952 135.427C130.182 136.074 129.781 137.059 129.881 138.06C129.942 138.668 130.185 139.243 130.578 139.712L133.468 143.157C133.718 143.454 133.748 143.815 133.635 144.096C133.524 144.371 133.278 144.574 132.915 144.579C128.566 144.635 125.353 142.885 123.4 140.272C121.439 137.648 120.718 134.113 121.448 130.559L121.496 130.322L94.7774 98.4793Z" fill="#244567" stroke="#244567"/>
<path d="M107.114 122.405L87.8572 143.523C85.9652 145.598 82.7492 145.747 80.6743 143.855C78.5994 141.963 78.4512 138.746 80.3432 136.671L100.569 114.491L107.114 122.405ZM86.3101 137.493C84.9666 136.269 82.8845 136.364 81.6595 137.708C80.4345 139.051 80.5306 141.133 81.8738 142.358C83.2173 143.584 85.3001 143.488 86.5252 142.145C87.7503 140.801 87.6536 138.719 86.3101 137.493ZM134.827 74.2122C135.169 74.3196 135.246 74.7949 134.888 74.9974L125.017 80.5871C124.731 80.7496 124.544 81.0456 124.52 81.3745L124.183 86.0381C124.168 86.2536 124.224 86.4687 124.342 86.6495L128.915 93.6314C129.098 93.9107 129.409 94.0792 129.743 94.0778L133.453 94.061C133.652 94.0601 133.847 93.9987 134.011 93.8852L142.385 88.0797C142.47 88.0208 142.554 88.0287 142.613 88.0658C142.644 88.0849 142.666 88.1107 142.678 88.1367C142.689 88.1602 142.697 88.1952 142.687 88.2476C141.289 95.3915 136.111 102.416 128.14 104.025C127.932 104.067 127.727 104.146 127.541 104.264L124.175 106.409L111.841 92.4669L114.249 80.8304L114.25 80.831C115.372 75.6338 122.939 70.4762 134.827 74.2122Z" fill="#244567" stroke="#244567"/>
<path d="M187.014 93H168.877L192.434 23.1818H214.9L238.457 93H220.32L203.923 40.7727H203.377L187.014 93ZM184.593 65.5227H222.502V78.3409H184.593V65.5227ZM263.604 23.1818V93H246.934V23.1818H263.604ZM304.732 40.6364V52.9091H271.698V40.6364H304.732ZM278.618 28.0909H295.289V76.5341C295.289 77.5568 295.448 78.3864 295.766 79.0227C296.107 79.6364 296.596 80.0795 297.232 80.3523C297.868 80.6023 298.63 80.7273 299.516 80.7273C300.152 80.7273 300.823 80.6705 301.527 80.5568C302.255 80.4205 302.8 80.3068 303.164 80.2159L305.686 92.25C304.891 92.4773 303.766 92.7614 302.311 93.1023C300.88 93.4432 299.164 93.6591 297.164 93.75C293.255 93.9318 289.902 93.4773 287.107 92.3864C284.334 91.2727 282.209 89.5455 280.732 87.2045C279.277 84.8636 278.573 81.9205 278.618 78.375V28.0909ZM338.112 93.9886C332.635 93.9886 327.908 92.9091 323.931 90.75C319.976 88.5682 316.931 85.4659 314.794 81.4432C312.681 77.3977 311.624 72.5909 311.624 67.0227C311.624 61.6136 312.692 56.8864 314.828 52.8409C316.965 48.7727 319.976 45.6136 323.862 43.3636C327.749 41.0909 332.328 39.9545 337.601 39.9545C341.328 39.9545 344.737 40.5341 347.828 41.6932C350.919 42.8523 353.59 44.5682 355.84 46.8409C358.09 49.1136 359.84 51.9205 361.09 55.2614C362.34 58.5795 362.965 62.3864 362.965 66.6818V70.8409H317.453V61.1591H347.453C347.431 59.3864 347.01 57.8068 346.192 56.4205C345.374 55.0341 344.249 53.9545 342.817 53.1818C341.408 52.3864 339.783 51.9886 337.942 51.9886C336.078 51.9886 334.408 52.4091 332.931 53.25C331.453 54.0682 330.283 55.1932 329.419 56.625C328.556 58.0341 328.101 59.6364 328.056 61.4318V71.2841C328.056 73.4205 328.476 75.2955 329.317 76.9091C330.158 78.5 331.351 79.7386 332.896 80.625C334.442 81.5114 336.283 81.9545 338.419 81.9545C339.896 81.9545 341.237 81.75 342.442 81.3409C343.646 80.9318 344.681 80.3295 345.544 79.5341C346.408 78.7386 347.056 77.7614 347.487 76.6023L362.794 77.0455C362.158 80.4773 360.76 83.4659 358.601 86.0114C356.465 88.5341 353.658 90.5 350.181 91.9091C346.703 93.2955 342.681 93.9886 338.112 93.9886ZM387.473 79.2614L387.541 59.3864H389.859L404.587 40.6364H423.473L401.587 67.5H397.189L387.473 79.2614ZM372.439 93V23.1818H389.109V93H372.439ZM404.962 93L391.257 71.25L402.234 59.4205L424.223 93H404.962ZM451.984 93V23.1818H480.825C486.052 23.1818 490.563 24.2045 494.359 26.25C498.177 28.2727 501.12 31.1023 503.188 34.7386C505.257 38.3523 506.291 42.5568 506.291 47.3523C506.291 52.1705 505.234 56.3864 503.12 60C501.029 63.5909 498.041 66.375 494.154 68.3523C490.268 70.3295 485.654 71.3182 480.313 71.3182H462.518V58.0227H477.177C479.723 58.0227 481.848 57.5795 483.552 56.6932C485.279 55.8068 486.586 54.5682 487.473 52.9773C488.359 51.3636 488.802 49.4886 488.802 47.3523C488.802 45.1932 488.359 43.3295 487.473 41.7614C486.586 40.1705 485.279 38.9432 483.552 38.0795C481.825 37.2159 479.7 36.7841 477.177 36.7841H468.859V93H451.984ZM515.569 93V40.6364H531.762V50.1818H532.308C533.262 46.7273 534.819 44.1591 536.978 42.4773C539.137 40.7727 541.648 39.9205 544.512 39.9205C545.285 39.9205 546.08 39.9773 546.898 40.0909C547.717 40.1818 548.478 40.3295 549.183 40.5341V55.0227C548.387 54.75 547.342 54.5341 546.046 54.375C544.773 54.2159 543.637 54.1364 542.637 54.1364C540.66 54.1364 538.876 54.5795 537.285 55.4659C535.717 56.3295 534.478 57.5455 533.569 59.1136C532.683 60.6591 532.239 62.4773 532.239 64.5682V93H515.569ZM578.66 93.9886C573.16 93.9886 568.432 92.8636 564.478 90.6136C560.546 88.3409 557.512 85.1818 555.375 81.1364C553.262 77.0682 552.205 72.3523 552.205 66.9886C552.205 61.6023 553.262 56.8864 555.375 52.8409C557.512 48.7727 560.546 45.6136 564.478 43.3636C568.432 41.0909 573.16 39.9545 578.66 39.9545C584.16 39.9545 588.875 41.0909 592.807 43.3636C596.762 45.6136 599.796 48.7727 601.91 52.8409C604.046 56.8864 605.114 61.6023 605.114 66.9886C605.114 72.3523 604.046 77.0682 601.91 81.1364C599.796 85.1818 596.762 88.3409 592.807 90.6136C588.875 92.8636 584.16 93.9886 578.66 93.9886ZM578.762 81.4091C580.762 81.4091 582.455 80.7955 583.841 79.5682C585.228 78.3409 586.285 76.6364 587.012 74.4545C587.762 72.2727 588.137 69.75 588.137 66.8864C588.137 63.9773 587.762 61.4318 587.012 59.25C586.285 57.0682 585.228 55.3636 583.841 54.1364C582.455 52.9091 580.762 52.2955 578.762 52.2955C576.694 52.2955 574.944 52.9091 573.512 54.1364C572.103 55.3636 571.023 57.0682 570.273 59.25C569.546 61.4318 569.182 63.9773 569.182 66.8864C569.182 69.75 569.546 72.2727 570.273 74.4545C571.023 76.6364 572.103 78.3409 573.512 79.5682C574.944 80.7955 576.694 81.4091 578.762 81.4091Z" fill="#F7641A"/>
<path d="M166.652 136V119.2H173.924C175.428 119.2 176.724 119.448 177.812 119.944C178.9 120.424 179.74 121.12 180.332 122.032C180.924 122.944 181.22 124.032 181.22 125.296C181.22 126.544 180.924 127.624 180.332 128.536C179.74 129.432 178.9 130.12 177.812 130.6C176.724 131.08 175.428 131.32 173.924 131.32H168.812L170.54 129.616V136H166.652ZM177.332 136L173.132 129.904H177.284L181.532 136H177.332ZM170.54 130.048L168.812 128.224H173.708C174.908 128.224 175.804 127.968 176.396 127.456C176.988 126.928 177.284 126.208 177.284 125.296C177.284 124.368 176.988 123.648 176.396 123.136C175.804 122.624 174.908 122.368 173.708 122.368H168.812L170.54 120.52V130.048ZM192.437 125.968H200.525V128.992H192.437V125.968ZM192.725 132.88H201.869V136H188.861V119.2H201.557V122.32H192.725V132.88ZM209.522 136V119.2H213.41V132.832H221.834V136H209.522ZM228.566 136V119.2H232.454V136H228.566ZM238.793 136L246.281 119.2H250.121L257.633 136H253.553L247.409 121.168H248.945L242.777 136H238.793ZM242.537 132.4L243.569 129.448H252.209L253.265 132.4H242.537ZM263.936 136V119.2H272.144C274.256 119.2 275.84 119.6 276.896 120.4C277.968 121.2 278.504 122.256 278.504 123.568C278.504 124.448 278.288 125.216 277.856 125.872C277.424 126.512 276.832 127.008 276.08 127.36C275.328 127.712 274.464 127.888 273.488 127.888L273.944 126.904C275 126.904 275.936 127.08 276.752 127.432C277.568 127.768 278.2 128.272 278.648 128.944C279.112 129.616 279.344 130.44 279.344 131.416C279.344 132.856 278.776 133.984 277.64 134.8C276.504 135.6 274.832 136 272.624 136H263.936ZM267.8 133.072H272.336C273.344 133.072 274.104 132.912 274.616 132.592C275.144 132.256 275.408 131.728 275.408 131.008C275.408 130.304 275.144 129.784 274.616 129.448C274.104 129.096 273.344 128.92 272.336 128.92H267.512V126.088H271.664C272.608 126.088 273.328 125.928 273.824 125.608C274.336 125.272 274.592 124.768 274.592 124.096C274.592 123.44 274.336 122.952 273.824 122.632C273.328 122.296 272.608 122.128 271.664 122.128H267.8V133.072ZM286.848 136V119.2H290.736V132.832H299.16V136H286.848ZM309.468 125.968H317.556V128.992H309.468V125.968ZM309.756 132.88H318.9V136H305.892V119.2H318.588V122.32H309.756V132.88ZM327.94 136.192C327.3 136.192 326.748 135.976 326.284 135.544C325.836 135.096 325.612 134.528 325.612 133.84C325.612 133.152 325.836 132.6 326.284 132.184C326.748 131.752 327.3 131.536 327.94 131.536C328.596 131.536 329.148 131.752 329.596 132.184C330.044 132.6 330.268 133.152 330.268 133.84C330.268 134.528 330.044 135.096 329.596 135.544C329.148 135.976 328.596 136.192 327.94 136.192ZM354.506 136.288C353.162 136.288 351.874 136.112 350.642 135.76C349.41 135.392 348.418 134.92 347.666 134.344L348.986 131.416C349.706 131.928 350.554 132.352 351.53 132.688C352.522 133.008 353.522 133.168 354.53 133.168C355.298 133.168 355.914 133.096 356.378 132.952C356.858 132.792 357.21 132.576 357.434 132.304C357.658 132.032 357.77 131.72 357.77 131.368C357.77 130.92 357.594 130.568 357.242 130.312C356.89 130.04 356.426 129.824 355.85 129.664C355.274 129.488 354.634 129.328 353.93 129.184C353.242 129.024 352.546 128.832 351.842 128.608C351.154 128.384 350.522 128.096 349.946 127.744C349.37 127.392 348.898 126.928 348.53 126.352C348.178 125.776 348.002 125.04 348.002 124.144C348.002 123.184 348.258 122.312 348.77 121.528C349.298 120.728 350.082 120.096 351.122 119.632C352.178 119.152 353.498 118.912 355.082 118.912C356.138 118.912 357.178 119.04 358.202 119.296C359.226 119.536 360.13 119.904 360.914 120.4L359.714 123.352C358.93 122.904 358.146 122.576 357.362 122.368C356.578 122.144 355.81 122.032 355.058 122.032C354.306 122.032 353.69 122.12 353.21 122.296C352.73 122.472 352.386 122.704 352.178 122.992C351.97 123.264 351.866 123.584 351.866 123.952C351.866 124.384 352.042 124.736 352.394 125.008C352.746 125.264 353.21 125.472 353.786 125.632C354.362 125.792 354.994 125.952 355.682 126.112C356.386 126.272 357.082 126.456 357.77 126.664C358.474 126.872 359.114 127.152 359.69 127.504C360.266 127.856 360.73 128.32 361.082 128.896C361.45 129.472 361.634 130.2 361.634 131.08C361.634 132.024 361.37 132.888 360.842 133.672C360.314 134.456 359.522 135.088 358.466 135.568C357.426 136.048 356.106 136.288 354.506 136.288ZM372.331 132.16L372.115 127.672L380.155 119.2H384.475L377.227 127L375.067 129.304L372.331 132.16ZM368.851 136V119.2H372.715V136H368.851ZM380.347 136L374.371 128.68L376.915 125.92L384.883 136H380.347ZM391.177 136V119.2H395.065V136H391.177ZM403.612 136V119.2H407.5V132.832H415.924V136H403.612ZM422.656 136V119.2H426.544V132.832H434.968V136H422.656ZM445.277 125.968H453.365V128.992H445.277V125.968ZM445.565 132.88H454.709V136H441.701V119.2H454.397V122.32H445.565V132.88ZM462.362 136V119.2H469.994C471.818 119.2 473.426 119.552 474.818 120.256C476.21 120.944 477.298 121.912 478.082 123.16C478.866 124.408 479.258 125.888 479.258 127.6C479.258 129.296 478.866 130.776 478.082 132.04C477.298 133.288 476.21 134.264 474.818 134.968C473.426 135.656 471.818 136 469.994 136H462.362ZM466.25 132.808H469.802C470.922 132.808 471.89 132.6 472.706 132.184C473.538 131.752 474.178 131.144 474.626 130.36C475.09 129.576 475.322 128.656 475.322 127.6C475.322 126.528 475.09 125.608 474.626 124.84C474.178 124.056 473.538 123.456 472.706 123.04C471.89 122.608 470.922 122.392 469.802 122.392H466.25V132.808ZM487.433 136.192C486.793 136.192 486.241 135.976 485.777 135.544C485.329 135.096 485.105 134.528 485.105 133.84C485.105 133.152 485.329 132.6 485.777 132.184C486.241 131.752 486.793 131.536 487.433 131.536C488.089 131.536 488.641 131.752 489.089 132.184C489.537 132.6 489.761 133.152 489.761 133.84C489.761 134.528 489.537 135.096 489.089 135.544C488.641 135.976 488.089 136.192 487.433 136.192ZM508.48 136V119.2H512.368V132.832H520.792V136H508.48ZM535.403 136.288C534.075 136.288 532.843 136.072 531.707 135.64C530.587 135.208 529.611 134.6 528.779 133.816C527.963 133.032 527.323 132.112 526.859 131.056C526.411 130 526.187 128.848 526.187 127.6C526.187 126.352 526.411 125.2 526.859 124.144C527.323 123.088 527.971 122.168 528.803 121.384C529.635 120.6 530.611 119.992 531.731 119.56C532.851 119.128 534.067 118.912 535.379 118.912C536.707 118.912 537.923 119.128 539.027 119.56C540.147 119.992 541.115 120.6 541.931 121.384C542.763 122.168 543.411 123.088 543.875 124.144C544.339 125.184 544.571 126.336 544.571 127.6C544.571 128.848 544.339 130.008 543.875 131.08C543.411 132.136 542.763 133.056 541.931 133.84C541.115 134.608 540.147 135.208 539.027 135.64C537.923 136.072 536.715 136.288 535.403 136.288ZM535.379 132.976C536.131 132.976 536.819 132.848 537.443 132.592C538.083 132.336 538.643 131.968 539.123 131.488C539.603 131.008 539.971 130.44 540.227 129.784C540.499 129.128 540.635 128.4 540.635 127.6C540.635 126.8 540.499 126.072 540.227 125.416C539.971 124.76 539.603 124.192 539.123 123.712C538.659 123.232 538.107 122.864 537.467 122.608C536.827 122.352 536.131 122.224 535.379 122.224C534.627 122.224 533.931 122.352 533.291 122.608C532.667 122.864 532.115 123.232 531.635 123.712C531.155 124.192 530.779 124.76 530.507 125.416C530.251 126.072 530.123 126.8 530.123 127.6C530.123 128.384 530.251 129.112 530.507 129.784C530.779 130.44 531.147 131.008 531.611 131.488C532.091 131.968 532.651 132.336 533.291 132.592C533.931 132.848 534.627 132.976 535.379 132.976ZM560.093 136.288C558.797 136.288 557.589 136.08 556.469 135.664C555.365 135.232 554.405 134.624 553.589 133.84C552.773 133.056 552.133 132.136 551.669 131.08C551.221 130.024 550.997 128.864 550.997 127.6C550.997 126.336 551.221 125.176 551.669 124.12C552.133 123.064 552.773 122.144 553.589 121.36C554.421 120.576 555.389 119.976 556.493 119.56C557.597 119.128 558.805 118.912 560.117 118.912C561.573 118.912 562.885 119.168 564.053 119.68C565.237 120.176 566.229 120.912 567.029 121.888L564.533 124.192C563.957 123.536 563.317 123.048 562.613 122.728C561.909 122.392 561.141 122.224 560.309 122.224C559.525 122.224 558.805 122.352 558.149 122.608C557.493 122.864 556.925 123.232 556.445 123.712C555.965 124.192 555.589 124.76 555.317 125.416C555.061 126.072 554.933 126.8 554.933 127.6C554.933 128.4 555.061 129.128 555.317 129.784C555.589 130.44 555.965 131.008 556.445 131.488C556.925 131.968 557.493 132.336 558.149 132.592C558.805 132.848 559.525 132.976 560.309 132.976C561.141 132.976 561.909 132.816 562.613 132.496C563.317 132.16 563.957 131.656 564.533 130.984L567.029 133.288C566.229 134.264 565.237 135.008 564.053 135.52C562.885 136.032 561.565 136.288 560.093 136.288ZM571.702 136L579.19 119.2H583.03L590.542 136H586.462L580.318 121.168H581.854L575.686 136H571.702ZM575.446 132.4L576.478 129.448H585.118L586.174 132.4H575.446ZM596.845 136V119.2H600.733V132.832H609.157V136H596.845Z" fill="#244567"/>
</svg>
