<svg width="56" height="51" viewBox="0 0 56 51" fill="none" xmlns="http://www.w3.org/2000/svg">
<path d="M7.67338 40.711C7.67338 40.711 7.62824 21.1458 7.67338 19.0957C7.71853 17.001 11.1494 17.001 11.1494 19.0957V37.3684H28.5773C30.0438 37.3684 30.7992 39.1222 29.7918 40.1878C29.4761 40.5217 29.0368 40.711 28.5773 40.711H7.67338Z" fill="#244567" stroke="#244567"/>
<path d="M8.19534 5.53675C8.22087 7.8199 8.19534 10.5882 8.19534 10.5882C4.59308 12.5199 1.77037 14.0365 1.22541 14.3377C-0.494446 15.288 0.570234 18.263 2.82243 17.3539C4.5682 16.6493 18.3354 10.4287 24.4387 7.66695C26.2732 6.83684 28.3641 6.83634 30.1991 7.66549C36.3093 10.4265 50.1012 16.6492 51.8472 17.3539C54.0994 18.263 55.1641 15.288 53.4443 14.3377C52.0877 13.5881 36.628 5.08923 30.1566 1.53716C28.3985 0.572171 26.3076 0.594989 24.5643 1.5864C21.6535 3.24175 16.9101 5.91833 12.4541 8.30571C12.4541 8.30571 12.4802 7.83025 12.4541 5.53675C12.4279 3.24325 8.1698 3.25361 8.19534 5.53675Z" fill="#244567" stroke="#244567" stroke-width="0.75"/>
<path d="M35.2773 30.0823L34.9891 30.1368C31.6249 30.7729 29.1433 27.9701 29.4392 25.3154L30.7919 26.9276C31.0936 27.2871 31.5213 27.5172 31.9875 27.5715C32.4898 27.6299 32.9938 27.4791 33.3812 27.1541L35.6232 25.2728C36.0106 24.9478 36.2466 24.4775 36.2763 23.9727C36.3038 23.5043 36.1514 23.0431 35.8498 22.6836L34.4983 21.0729C37.1526 21.248 39.4631 24.1929 38.2507 27.3999L38.1478 27.6737L48.2214 39.6791L48.4632 39.6725C49.721 39.6374 50.8692 40.0968 51.6286 40.9046C52.3744 41.6981 52.7784 42.863 52.5077 44.333L51.4368 43.0568C51.2512 42.8355 51.003 42.6756 50.7249 42.5973C50.2674 42.4687 49.7757 42.5741 49.4116 42.8796L48.2962 43.8155C47.9322 44.121 47.7429 44.587 47.7902 45.0599C47.819 45.3473 47.9334 45.6195 48.1191 45.8407L49.1856 47.1117C49.187 47.1134 49.1876 47.1154 49.1886 47.1169C47.6944 47.1278 46.6175 46.5271 45.9657 45.6551C45.302 44.767 45.0495 43.5571 45.3026 42.3246L45.351 42.0876L35.2773 30.0823Z" fill="#244567" stroke="#244567"/>
<path d="M39.2875 39.2423L32.3678 46.8306C31.7873 47.4673 30.8006 47.5134 30.164 46.9329C29.6371 46.4524 29.5156 45.6941 29.8182 45.0859C29.5521 45.6734 29.6791 46.3889 30.1814 46.8471C30.8057 47.4164 31.7732 47.3723 32.3426 46.7481C32.912 46.1237 32.8674 45.1557 32.243 44.5863C31.6692 44.0631 30.8063 44.0592 30.2282 44.5464L37.2794 36.8138L39.2875 39.2423ZM46.1544 23.5521C45.9567 23.664 45.828 23.868 45.8117 24.0946L45.6877 25.8147C45.677 25.9632 45.7154 26.1109 45.797 26.2354L47.4828 28.8115C47.6088 29.0039 47.8241 29.1193 48.0541 29.1184L49.4232 29.1127C49.5603 29.112 49.6942 29.07 49.8069 28.992L52.3677 27.2156C51.7332 29.4507 50.0718 31.5031 47.6567 32.105L47.3988 32.1632C47.3145 32.1802 47.2302 32.2084 47.1498 32.2493L47.071 32.2951L46.0563 32.9412L41.7901 28.1179L42.6465 23.9785C42.9985 22.3659 45.405 20.5348 49.4763 21.6701L46.1544 23.5521Z" fill="#244567" stroke="#244567"/>
</svg>
