<svg width="739" height="675" viewBox="0 0 739 675" fill="none" xmlns="http://www.w3.org/2000/svg">
<g opacity="0.05">
<path d="M98.4433 546.266C98.4433 546.266 97.8375 283.736 98.4433 256.227C99.0491 228.121 145.086 228.121 145.086 256.227V501.414H426.355C428.11 501.414 429.014 503.513 427.809 504.788L389.188 545.64C388.81 546.039 388.285 546.266 387.735 546.266H98.4433Z" fill="#244567" stroke="#244567" stroke-width="2"/>
<path d="M98.4433 546.266C98.4433 546.266 97.8375 283.736 98.4433 256.227C99.0491 228.121 145.086 228.121 145.086 256.227V326.007M388.596 546.266L427.809 504.788C429.014 503.513 428.11 501.414 426.355 501.414H280.909" stroke="#244567" stroke-width="2"/>
<path d="M388.597 546.265L427.809 504.788C429.015 503.512 428.111 501.414 426.356 501.414H280.909" stroke="#244567" stroke-width="2"/>
<path d="M105.447 74.2933C105.789 104.929 105.447 142.075 105.447 142.075C57.1106 167.994 19.235 188.345 11.9226 192.386C-11.1548 205.137 3.13133 245.056 33.3517 232.859C61.7058 221.415 326.388 101.532 358.979 86.7708L359.339 86.608C361.173 85.7773 362.921 85.7771 364.755 86.6071C395.726 100.619 662.715 221.371 691.177 232.859C721.397 245.056 735.683 205.137 712.606 192.386C692.762 181.421 448.014 46.8776 379.807 9.47695C368.963 3.53074 356.053 3.63363 345.312 9.76362C311.594 29.0062 234.318 73.0192 162.591 111.448C162.591 111.448 162.941 105.068 162.591 74.2933C162.241 43.5186 105.104 43.6576 105.447 74.2933Z" fill="#244567" stroke="#244567"/>
<path d="M466.413 410.43L466.125 410.485C412.357 420.653 373.503 370.94 386.462 328.591C386.788 327.528 388.166 327.251 388.912 328.141L413.404 357.33C416.433 360.939 420.728 363.254 425.409 363.798C430.453 364.385 435.515 362.868 439.405 359.604L469.488 334.361C473.378 331.097 475.751 326.375 476.049 321.306C476.326 316.602 474.792 311.97 471.763 308.36L447.271 279.171C446.525 278.282 447.037 276.973 448.141 276.838C492.07 271.448 533.899 318.662 514.546 369.854L514.443 370.129L645.347 526.134L645.588 526.127C665.31 525.574 683.571 533.3 695.045 547.204C706.508 561.096 711.243 581.212 703.814 605.548C703.478 606.648 702.057 606.936 701.308 606.044L680.911 581.736C679.221 579.722 676.964 578.264 674.433 577.552C670.27 576.382 665.798 577.344 662.485 580.124L647.519 592.681C644.207 595.461 642.482 599.699 642.912 604.001C643.174 606.617 644.218 609.094 645.907 611.108L666.304 635.415C667.053 636.308 666.522 637.658 665.381 637.797C640.124 640.887 621.133 632.734 609.441 619.034C597.738 605.322 593.299 585.999 597.268 566.672L597.317 566.436L466.413 410.43Z" fill="#244567" stroke="#244567"/>
<path d="M497.319 486.216L529.812 525.499C530.417 526.229 530.391 527.293 529.752 527.994L434.385 632.576C424.285 643.653 407.117 644.444 396.04 634.344C384.964 624.243 384.173 607.076 394.273 595.999L494.446 486.146C495.226 485.291 496.582 485.324 497.319 486.216ZM423.94 602.857C418.095 597.528 409.037 597.944 403.707 603.789C398.378 609.633 398.796 618.692 404.64 624.021C410.485 629.35 419.543 628.933 424.872 623.089C430.202 617.245 429.784 608.186 423.94 602.857ZM666.022 286.269C669.46 287.35 669.888 291.955 666.707 293.757L617.845 321.43C617 321.909 616.45 322.778 616.38 323.747L614.714 346.834C614.668 347.469 614.832 348.101 615.181 348.634L637.815 383.198C638.354 384.021 639.273 384.514 640.257 384.51L658.618 384.43C659.205 384.427 659.778 384.247 660.26 383.912L701.716 355.174C703.934 353.636 706.776 355.44 706.274 358.006C699.244 393.926 673.163 429.496 632.717 437.661C631.909 437.825 631.124 438.13 630.422 438.577L612.339 450.103L549.514 379.087L561.64 320.494C567.547 293.161 606.59 267.592 666.022 286.269Z" fill="#244567" stroke="#244567"/>
</g>
</svg>
