<svg width="715" height="196" viewBox="0 0 715 196" fill="none" xmlns="http://www.w3.org/2000/svg">
<path d="M28.8998 158.402C28.8998 158.402 28.7242 82.2758 28.8998 74.299C29.0755 66.1488 42.4249 66.1488 42.4249 74.299V145.397H120.689C122.444 145.397 123.348 147.495 122.142 148.771L113.628 157.776C113.25 158.176 112.725 158.402 112.175 158.402H28.8998Z" fill="#244567" stroke="#244567" stroke-width="2"/>
<path d="M28.8998 158.402C28.8998 158.402 28.7242 82.2758 28.8998 74.299C29.0755 66.1488 42.4249 66.1488 42.4249 74.299V94.5333M113.036 158.402L122.142 148.771C123.348 147.495 122.444 145.397 120.689 145.397H81.8099" stroke="#244567" stroke-width="2"/>
<path d="M113.037 158.402L122.142 148.77C123.348 147.495 122.444 145.396 120.689 145.396H81.8101" stroke="#244567" stroke-width="2"/>
<path d="M30.9306 21.543C31.0299 30.4266 30.9306 41.198 30.9306 41.198C16.9145 48.7138 5.9316 54.615 3.8112 55.7866C-2.88061 59.4843 1.26197 71.0596 10.0251 67.5227C17.8225 64.3756 87.2557 32.9471 102.465 26.0593C104.299 25.2287 106.377 25.2285 108.211 26.0582C123.435 32.9437 192.979 64.3754 200.776 67.5227C209.54 71.0596 213.682 59.4843 206.99 55.7866C202.119 53.0951 150.515 24.7252 122.792 9.50119C111.951 3.54837 99.0243 3.6908 88.2604 9.78068C77.0464 16.1252 61.8888 24.6084 47.5009 32.3168C47.5009 32.3168 47.6025 30.4668 47.5009 21.543C47.3993 12.6192 30.8313 12.6595 30.9306 21.543Z" fill="#244567" stroke="#244567"/>
<path d="M135.74 118.626L135.451 118.681C121.098 121.395 110.49 109.139 112.232 97.6899C112.315 97.1507 112.669 96.8409 113.092 96.7517C113.527 96.6601 114.05 96.802 114.423 97.2474L119.959 103.844C120.895 104.96 122.223 105.676 123.67 105.844C125.23 106.026 126.795 105.556 127.997 104.547L136.721 97.2275C137.924 96.2183 138.657 94.7584 138.75 93.1911C138.835 91.7367 138.361 90.3041 137.425 89.188L131.89 82.5913C131.516 82.1459 131.466 81.6069 131.632 81.1949C131.793 80.7942 132.161 80.4996 132.706 80.5132C144.26 80.8017 154.394 93.4535 149.227 107.122L149.123 107.396L187.325 152.925L187.567 152.917C192.862 152.769 197.77 154.714 201.037 158.23C204.296 161.736 205.958 166.844 204.704 173.109C204.594 173.66 204.206 173.99 203.75 174.086C203.288 174.184 202.752 174.038 202.375 173.589L198.072 168.46C197.536 167.822 196.82 167.359 196.018 167.133C194.697 166.762 193.279 167.067 192.228 167.948L187.888 171.59C186.838 172.471 186.291 173.816 186.428 175.18C186.511 176.009 186.842 176.795 187.378 177.433L191.681 182.562C192.058 183.012 192.109 183.564 191.933 184.003C191.759 184.435 191.367 184.759 190.804 184.772C184.417 184.92 179.675 182.395 176.787 178.578C173.891 174.75 172.827 169.579 173.893 164.391L173.942 164.154L135.74 118.626Z" fill="#244567" stroke="#244567"/>
<path d="M144.289 141.215L153.712 152.607C153.774 152.682 153.772 152.793 153.705 152.865L126.052 183.191C123.255 186.258 118.501 186.477 115.434 183.68C112.367 180.883 112.148 176.129 114.944 173.062L143.992 141.208C144.072 141.12 144.213 141.123 144.289 141.215ZM123.524 174.55C121.684 172.873 118.833 173.004 117.156 174.844C115.478 176.683 115.61 179.534 117.449 181.212C119.289 182.889 122.14 182.758 123.817 180.918C125.495 179.079 125.364 176.228 123.524 174.55ZM193.376 83.3489C194.059 83.5635 194.174 84.4932 193.506 84.872L179.337 92.8973C178.989 93.0947 178.763 93.4529 178.734 93.8522L178.25 100.547C178.231 100.808 178.299 101.07 178.443 101.289L185.006 111.311C185.228 111.651 185.607 111.854 186.012 111.853L191.337 111.829C191.579 111.828 191.815 111.754 192.014 111.616L204.035 103.282C204.441 103.001 204.884 103.342 204.805 103.744C202.786 114.06 195.305 124.23 183.754 126.562C183.48 126.618 183.211 126.722 182.968 126.877L177.981 130.055L160.082 109.822L163.562 93.0064C165.215 85.3707 176.25 77.967 193.376 83.3489Z" fill="#244567" stroke="#244567"/>
<path d="M249.014 117H230.877L254.434 47.1818H276.9L300.457 117H282.32L265.923 64.7727H265.377L249.014 117ZM246.593 89.5227H284.502V102.341H246.593V89.5227ZM325.604 47.1818V117H308.934V47.1818H325.604ZM366.732 64.6364V76.9091H333.698V64.6364H366.732ZM340.618 52.0909H357.289V100.534C357.289 101.557 357.448 102.386 357.766 103.023C358.107 103.636 358.596 104.08 359.232 104.352C359.868 104.602 360.63 104.727 361.516 104.727C362.152 104.727 362.823 104.67 363.527 104.557C364.255 104.42 364.8 104.307 365.164 104.216L367.686 116.25C366.891 116.477 365.766 116.761 364.311 117.102C362.88 117.443 361.164 117.659 359.164 117.75C355.255 117.932 351.902 117.477 349.107 116.386C346.334 115.273 344.209 113.545 342.732 111.205C341.277 108.864 340.573 105.92 340.618 102.375V52.0909ZM400.112 117.989C394.635 117.989 389.908 116.909 385.931 114.75C381.976 112.568 378.931 109.466 376.794 105.443C374.681 101.398 373.624 96.5909 373.624 91.0227C373.624 85.6136 374.692 80.8864 376.828 76.8409C378.965 72.7727 381.976 69.6136 385.862 67.3636C389.749 65.0909 394.328 63.9545 399.601 63.9545C403.328 63.9545 406.737 64.5341 409.828 65.6932C412.919 66.8523 415.59 68.5682 417.84 70.8409C420.09 73.1136 421.84 75.9205 423.09 79.2614C424.34 82.5795 424.965 86.3864 424.965 90.6818V94.8409H379.453V85.1591H409.453C409.431 83.3864 409.01 81.8068 408.192 80.4205C407.374 79.0341 406.249 77.9545 404.817 77.1818C403.408 76.3864 401.783 75.9886 399.942 75.9886C398.078 75.9886 396.408 76.4091 394.931 77.25C393.453 78.0682 392.283 79.1932 391.419 80.625C390.556 82.0341 390.101 83.6364 390.056 85.4318V95.2841C390.056 97.4205 390.476 99.2955 391.317 100.909C392.158 102.5 393.351 103.739 394.896 104.625C396.442 105.511 398.283 105.955 400.419 105.955C401.896 105.955 403.237 105.75 404.442 105.341C405.646 104.932 406.681 104.33 407.544 103.534C408.408 102.739 409.056 101.761 409.487 100.602L424.794 101.045C424.158 104.477 422.76 107.466 420.601 110.011C418.465 112.534 415.658 114.5 412.181 115.909C408.703 117.295 404.681 117.989 400.112 117.989ZM449.473 103.261L449.541 83.3864H451.859L466.587 64.6364H485.473L463.587 91.5H459.189L449.473 103.261ZM434.439 117V47.1818H451.109V117H434.439ZM466.962 117L453.257 95.25L464.234 83.4205L486.223 117H466.962ZM513.984 117V47.1818H542.825C548.052 47.1818 552.563 48.2045 556.359 50.25C560.177 52.2727 563.12 55.1023 565.188 58.7386C567.257 62.3523 568.291 66.5568 568.291 71.3523C568.291 76.1705 567.234 80.3864 565.12 84C563.029 87.5909 560.041 90.375 556.154 92.3523C552.268 94.3295 547.654 95.3182 542.313 95.3182H524.518V82.0227H539.177C541.723 82.0227 543.848 81.5795 545.552 80.6932C547.279 79.8068 548.586 78.5682 549.473 76.9773C550.359 75.3636 550.802 73.4886 550.802 71.3523C550.802 69.1932 550.359 67.3295 549.473 65.7614C548.586 64.1705 547.279 62.9432 545.552 62.0795C543.825 61.2159 541.7 60.7841 539.177 60.7841H530.859V117H513.984ZM577.569 117V64.6364H593.762V74.1818H594.308C595.262 70.7273 596.819 68.1591 598.978 66.4773C601.137 64.7727 603.648 63.9205 606.512 63.9205C607.285 63.9205 608.08 63.9773 608.898 64.0909C609.717 64.1818 610.478 64.3295 611.183 64.5341V79.0227C610.387 78.75 609.342 78.5341 608.046 78.375C606.773 78.2159 605.637 78.1364 604.637 78.1364C602.66 78.1364 600.876 78.5795 599.285 79.4659C597.717 80.3295 596.478 81.5455 595.569 83.1136C594.683 84.6591 594.239 86.4773 594.239 88.5682V117H577.569ZM640.66 117.989C635.16 117.989 630.432 116.864 626.478 114.614C622.546 112.341 619.512 109.182 617.375 105.136C615.262 101.068 614.205 96.3523 614.205 90.9886C614.205 85.6023 615.262 80.8864 617.375 76.8409C619.512 72.7727 622.546 69.6136 626.478 67.3636C630.432 65.0909 635.16 63.9545 640.66 63.9545C646.16 63.9545 650.875 65.0909 654.807 67.3636C658.762 69.6136 661.796 72.7727 663.91 76.8409C666.046 80.8864 667.114 85.6023 667.114 90.9886C667.114 96.3523 666.046 101.068 663.91 105.136C661.796 109.182 658.762 112.341 654.807 114.614C650.875 116.864 646.16 117.989 640.66 117.989ZM640.762 105.409C642.762 105.409 644.455 104.795 645.841 103.568C647.228 102.341 648.285 100.636 649.012 98.4545C649.762 96.2727 650.137 93.75 650.137 90.8864C650.137 87.9773 649.762 85.4318 649.012 83.25C648.285 81.0682 647.228 79.3636 645.841 78.1364C644.455 76.9091 642.762 76.2955 640.762 76.2955C638.694 76.2955 636.944 76.9091 635.512 78.1364C634.103 79.3636 633.023 81.0682 632.273 83.25C631.546 85.4318 631.182 87.9773 631.182 90.8864C631.182 93.75 631.546 96.2727 632.273 98.4545C633.023 100.636 634.103 102.341 635.512 103.568C636.944 104.795 638.694 105.409 640.762 105.409Z" fill="#F7641A"/>
<path d="M228.652 160V143.2H235.924C237.428 143.2 238.724 143.448 239.812 143.944C240.9 144.424 241.74 145.12 242.332 146.032C242.924 146.944 243.22 148.032 243.22 149.296C243.22 150.544 242.924 151.624 242.332 152.536C241.74 153.432 240.9 154.12 239.812 154.6C238.724 155.08 237.428 155.32 235.924 155.32H230.812L232.54 153.616V160H228.652ZM239.332 160L235.132 153.904H239.284L243.532 160H239.332ZM232.54 154.048L230.812 152.224H235.708C236.908 152.224 237.804 151.968 238.396 151.456C238.988 150.928 239.284 150.208 239.284 149.296C239.284 148.368 238.988 147.648 238.396 147.136C237.804 146.624 236.908 146.368 235.708 146.368H230.812L232.54 144.52V154.048ZM254.437 149.968H262.525V152.992H254.437V149.968ZM254.725 156.88H263.869V160H250.861V143.2H263.557V146.32H254.725V156.88ZM271.522 160V143.2H275.41V156.832H283.834V160H271.522ZM290.566 160V143.2H294.454V160H290.566ZM300.793 160L308.281 143.2H312.121L319.633 160H315.553L309.409 145.168H310.945L304.777 160H300.793ZM304.537 156.4L305.569 153.448H314.209L315.265 156.4H304.537ZM325.936 160V143.2H334.144C336.256 143.2 337.84 143.6 338.896 144.4C339.968 145.2 340.504 146.256 340.504 147.568C340.504 148.448 340.288 149.216 339.856 149.872C339.424 150.512 338.832 151.008 338.08 151.36C337.328 151.712 336.464 151.888 335.488 151.888L335.944 150.904C337 150.904 337.936 151.08 338.752 151.432C339.568 151.768 340.2 152.272 340.648 152.944C341.112 153.616 341.344 154.44 341.344 155.416C341.344 156.856 340.776 157.984 339.64 158.8C338.504 159.6 336.832 160 334.624 160H325.936ZM329.8 157.072H334.336C335.344 157.072 336.104 156.912 336.616 156.592C337.144 156.256 337.408 155.728 337.408 155.008C337.408 154.304 337.144 153.784 336.616 153.448C336.104 153.096 335.344 152.92 334.336 152.92H329.512V150.088H333.664C334.608 150.088 335.328 149.928 335.824 149.608C336.336 149.272 336.592 148.768 336.592 148.096C336.592 147.44 336.336 146.952 335.824 146.632C335.328 146.296 334.608 146.128 333.664 146.128H329.8V157.072ZM348.848 160V143.2H352.736V156.832H361.16V160H348.848ZM371.468 149.968H379.556V152.992H371.468V149.968ZM371.756 156.88H380.9V160H367.892V143.2H380.588V146.32H371.756V156.88ZM389.94 160.192C389.3 160.192 388.748 159.976 388.284 159.544C387.836 159.096 387.612 158.528 387.612 157.84C387.612 157.152 387.836 156.6 388.284 156.184C388.748 155.752 389.3 155.536 389.94 155.536C390.596 155.536 391.148 155.752 391.596 156.184C392.044 156.6 392.268 157.152 392.268 157.84C392.268 158.528 392.044 159.096 391.596 159.544C391.148 159.976 390.596 160.192 389.94 160.192ZM416.506 160.288C415.162 160.288 413.874 160.112 412.642 159.76C411.41 159.392 410.418 158.92 409.666 158.344L410.986 155.416C411.706 155.928 412.554 156.352 413.53 156.688C414.522 157.008 415.522 157.168 416.53 157.168C417.298 157.168 417.914 157.096 418.378 156.952C418.858 156.792 419.21 156.576 419.434 156.304C419.658 156.032 419.77 155.72 419.77 155.368C419.77 154.92 419.594 154.568 419.242 154.312C418.89 154.04 418.426 153.824 417.85 153.664C417.274 153.488 416.634 153.328 415.93 153.184C415.242 153.024 414.546 152.832 413.842 152.608C413.154 152.384 412.522 152.096 411.946 151.744C411.37 151.392 410.898 150.928 410.53 150.352C410.178 149.776 410.002 149.04 410.002 148.144C410.002 147.184 410.258 146.312 410.77 145.528C411.298 144.728 412.082 144.096 413.122 143.632C414.178 143.152 415.498 142.912 417.082 142.912C418.138 142.912 419.178 143.04 420.202 143.296C421.226 143.536 422.13 143.904 422.914 144.4L421.714 147.352C420.93 146.904 420.146 146.576 419.362 146.368C418.578 146.144 417.81 146.032 417.058 146.032C416.306 146.032 415.69 146.12 415.21 146.296C414.73 146.472 414.386 146.704 414.178 146.992C413.97 147.264 413.866 147.584 413.866 147.952C413.866 148.384 414.042 148.736 414.394 149.008C414.746 149.264 415.21 149.472 415.786 149.632C416.362 149.792 416.994 149.952 417.682 150.112C418.386 150.272 419.082 150.456 419.77 150.664C420.474 150.872 421.114 151.152 421.69 151.504C422.266 151.856 422.73 152.32 423.082 152.896C423.45 153.472 423.634 154.2 423.634 155.08C423.634 156.024 423.37 156.888 422.842 157.672C422.314 158.456 421.522 159.088 420.466 159.568C419.426 160.048 418.106 160.288 416.506 160.288ZM434.331 156.16L434.115 151.672L442.155 143.2H446.475L439.227 151L437.067 153.304L434.331 156.16ZM430.851 160V143.2H434.715V160H430.851ZM442.347 160L436.371 152.68L438.915 149.92L446.883 160H442.347ZM453.177 160V143.2H457.065V160H453.177ZM465.612 160V143.2H469.5V156.832H477.924V160H465.612ZM484.656 160V143.2H488.544V156.832H496.968V160H484.656ZM507.277 149.968H515.365V152.992H507.277V149.968ZM507.565 156.88H516.709V160H503.701V143.2H516.397V146.32H507.565V156.88ZM524.362 160V143.2H531.994C533.818 143.2 535.426 143.552 536.818 144.256C538.21 144.944 539.298 145.912 540.082 147.16C540.866 148.408 541.258 149.888 541.258 151.6C541.258 153.296 540.866 154.776 540.082 156.04C539.298 157.288 538.21 158.264 536.818 158.968C535.426 159.656 533.818 160 531.994 160H524.362ZM528.25 156.808H531.802C532.922 156.808 533.89 156.6 534.706 156.184C535.538 155.752 536.178 155.144 536.626 154.36C537.09 153.576 537.322 152.656 537.322 151.6C537.322 150.528 537.09 149.608 536.626 148.84C536.178 148.056 535.538 147.456 534.706 147.04C533.89 146.608 532.922 146.392 531.802 146.392H528.25V156.808ZM549.433 160.192C548.793 160.192 548.241 159.976 547.777 159.544C547.329 159.096 547.105 158.528 547.105 157.84C547.105 157.152 547.329 156.6 547.777 156.184C548.241 155.752 548.793 155.536 549.433 155.536C550.089 155.536 550.641 155.752 551.089 156.184C551.537 156.6 551.761 157.152 551.761 157.84C551.761 158.528 551.537 159.096 551.089 159.544C550.641 159.976 550.089 160.192 549.433 160.192ZM570.48 160V143.2H574.368V156.832H582.792V160H570.48ZM597.403 160.288C596.075 160.288 594.843 160.072 593.707 159.64C592.587 159.208 591.611 158.6 590.779 157.816C589.963 157.032 589.323 156.112 588.859 155.056C588.411 154 588.187 152.848 588.187 151.6C588.187 150.352 588.411 149.2 588.859 148.144C589.323 147.088 589.971 146.168 590.803 145.384C591.635 144.6 592.611 143.992 593.731 143.56C594.851 143.128 596.067 142.912 597.379 142.912C598.707 142.912 599.923 143.128 601.027 143.56C602.147 143.992 603.115 144.6 603.931 145.384C604.763 146.168 605.411 147.088 605.875 148.144C606.339 149.184 606.571 150.336 606.571 151.6C606.571 152.848 606.339 154.008 605.875 155.08C605.411 156.136 604.763 157.056 603.931 157.84C603.115 158.608 602.147 159.208 601.027 159.64C599.923 160.072 598.715 160.288 597.403 160.288ZM597.379 156.976C598.131 156.976 598.819 156.848 599.443 156.592C600.083 156.336 600.643 155.968 601.123 155.488C601.603 155.008 601.971 154.44 602.227 153.784C602.499 153.128 602.635 152.4 602.635 151.6C602.635 150.8 602.499 150.072 602.227 149.416C601.971 148.76 601.603 148.192 601.123 147.712C600.659 147.232 600.107 146.864 599.467 146.608C598.827 146.352 598.131 146.224 597.379 146.224C596.627 146.224 595.931 146.352 595.291 146.608C594.667 146.864 594.115 147.232 593.635 147.712C593.155 148.192 592.779 148.76 592.507 149.416C592.251 150.072 592.123 150.8 592.123 151.6C592.123 152.384 592.251 153.112 592.507 153.784C592.779 154.44 593.147 155.008 593.611 155.488C594.091 155.968 594.651 156.336 595.291 156.592C595.931 156.848 596.627 156.976 597.379 156.976ZM622.093 160.288C620.797 160.288 619.589 160.08 618.469 159.664C617.365 159.232 616.405 158.624 615.589 157.84C614.773 157.056 614.133 156.136 613.669 155.08C613.221 154.024 612.997 152.864 612.997 151.6C612.997 150.336 613.221 149.176 613.669 148.12C614.133 147.064 614.773 146.144 615.589 145.36C616.421 144.576 617.389 143.976 618.493 143.56C619.597 143.128 620.805 142.912 622.117 142.912C623.573 142.912 624.885 143.168 626.053 143.68C627.237 144.176 628.229 144.912 629.029 145.888L626.533 148.192C625.957 147.536 625.317 147.048 624.613 146.728C623.909 146.392 623.141 146.224 622.309 146.224C621.525 146.224 620.805 146.352 620.149 146.608C619.493 146.864 618.925 147.232 618.445 147.712C617.965 148.192 617.589 148.76 617.317 149.416C617.061 150.072 616.933 150.8 616.933 151.6C616.933 152.4 617.061 153.128 617.317 153.784C617.589 154.44 617.965 155.008 618.445 155.488C618.925 155.968 619.493 156.336 620.149 156.592C620.805 156.848 621.525 156.976 622.309 156.976C623.141 156.976 623.909 156.816 624.613 156.496C625.317 156.16 625.957 155.656 626.533 154.984L629.029 157.288C628.229 158.264 627.237 159.008 626.053 159.52C624.885 160.032 623.565 160.288 622.093 160.288ZM633.702 160L641.19 143.2H645.03L652.542 160H648.462L642.318 145.168H643.854L637.686 160H633.702ZM637.446 156.4L638.478 153.448H647.118L648.174 156.4H637.446ZM658.845 160V143.2H662.733V156.832H671.157V160H658.845Z" fill="#244567"/>
</svg>
